<mxfile host="app.diagrams.net" modified="2024-06-04T21:48:37.609Z" agent="Mozilla/5.0 (Windows NT 10.0; Win64; x64) AppleWebKit/537.36 (KHTML, like Gecko) Chrome/125.0.0.0 Safari/537.36" etag="ZQg6akgP0KYTGeXgy0A2" version="24.4.13" type="github">
  <diagram name="Page-1" id="2k12gFcrOjytZBbHdR5s">
    <mxGraphModel dx="880" dy="468" grid="1" gridSize="10" guides="1" tooltips="1" connect="1" arrows="1" fold="1" page="1" pageScale="1" pageWidth="850" pageHeight="1100" math="0" shadow="0">
      <root>
        <mxCell id="0" />
        <mxCell id="1" parent="0" />
        <mxCell id="DP1voIUMJ-i5vXt5Bh_H-1" value="" style="shape=image;html=1;verticalAlign=top;verticalLabelPosition=bottom;labelBackgroundColor=#ffffff;imageAspect=0;aspect=fixed;image=https://cdn0.iconfinder.com/data/icons/phosphor-fill-vol-2/256/file-csv-fill-128.png" vertex="1" parent="1">
          <mxGeometry x="32.92" y="210" width="70" height="70" as="geometry" />
        </mxCell>
        <mxCell id="DP1voIUMJ-i5vXt5Bh_H-3" value="" style="endArrow=classic;html=1;rounded=0;" edge="1" parent="1">
          <mxGeometry width="50" height="50" relative="1" as="geometry">
            <mxPoint x="110" y="110" as="sourcePoint" />
            <mxPoint x="200" y="110" as="targetPoint" />
          </mxGeometry>
        </mxCell>
        <mxCell id="DP1voIUMJ-i5vXt5Bh_H-4" value="" style="aspect=fixed;sketch=0;html=1;dashed=0;whitespace=wrap;verticalLabelPosition=bottom;verticalAlign=top;fillColor=#2875E2;strokeColor=#ffffff;points=[[0.005,0.63,0],[0.1,0.2,0],[0.9,0.2,0],[0.5,0,0],[0.995,0.63,0],[0.72,0.99,0],[0.5,1,0],[0.28,0.99,0]];shape=mxgraph.kubernetes.icon2;kubernetesLabel=1;prIcon=api" vertex="1" parent="1">
          <mxGeometry x="30" y="70" width="72.92" height="70" as="geometry" />
        </mxCell>
        <mxCell id="DP1voIUMJ-i5vXt5Bh_H-5" value="" style="sketch=0;html=1;aspect=fixed;strokeColor=none;shadow=0;align=center;fillColor=#2D9C5E;verticalAlign=top;labelPosition=center;verticalLabelPosition=bottom;shape=mxgraph.gcp2.external_data_center" vertex="1" parent="1">
          <mxGeometry x="210" y="70" width="61.6" height="80" as="geometry" />
        </mxCell>
        <mxCell id="DP1voIUMJ-i5vXt5Bh_H-6" value="" style="sketch=0;points=[[0,0,0],[0.25,0,0],[0.5,0,0],[0.75,0,0],[1,0,0],[0,1,0],[0.25,1,0],[0.5,1,0],[0.75,1,0],[1,1,0],[0,0.25,0],[0,0.5,0],[0,0.75,0],[1,0.25,0],[1,0.5,0],[1,0.75,0]];outlineConnect=0;fontColor=#232F3E;fillColor=#01A88D;strokeColor=#ffffff;dashed=0;verticalLabelPosition=bottom;verticalAlign=top;align=center;html=1;fontSize=12;fontStyle=0;aspect=fixed;shape=mxgraph.aws4.resourceIcon;resIcon=mxgraph.aws4.database_migration_service;" vertex="1" parent="1">
          <mxGeometry x="400" y="71" width="78" height="78" as="geometry" />
        </mxCell>
        <mxCell id="DP1voIUMJ-i5vXt5Bh_H-7" value="" style="endArrow=classic;html=1;rounded=0;" edge="1" parent="1">
          <mxGeometry width="50" height="50" relative="1" as="geometry">
            <mxPoint x="290" y="104.5" as="sourcePoint" />
            <mxPoint x="380" y="104.5" as="targetPoint" />
          </mxGeometry>
        </mxCell>
        <mxCell id="DP1voIUMJ-i5vXt5Bh_H-8" value="" style="sketch=0;html=1;aspect=fixed;strokeColor=none;shadow=0;align=center;fillColor=#2D9C5E;verticalAlign=top;labelPosition=center;verticalLabelPosition=bottom;shape=mxgraph.gcp2.external_data_center" vertex="1" parent="1">
          <mxGeometry x="408.2" y="210" width="61.6" height="80" as="geometry" />
        </mxCell>
        <mxCell id="DP1voIUMJ-i5vXt5Bh_H-9" value="" style="endArrow=classic;html=1;rounded=0;" edge="1" parent="1">
          <mxGeometry width="50" height="50" relative="1" as="geometry">
            <mxPoint x="439" y="160" as="sourcePoint" />
            <mxPoint x="439" y="200" as="targetPoint" />
          </mxGeometry>
        </mxCell>
        <mxCell id="DP1voIUMJ-i5vXt5Bh_H-10" value="Extract data" style="rounded=0;whiteSpace=wrap;html=1;" vertex="1" parent="1">
          <mxGeometry x="110" y="70" width="80" height="30" as="geometry" />
        </mxCell>
        <mxCell id="DP1voIUMJ-i5vXt5Bh_H-11" value="Transform Data" style="rounded=0;whiteSpace=wrap;html=1;" vertex="1" parent="1">
          <mxGeometry x="290" y="70" width="80" height="30" as="geometry" />
        </mxCell>
        <mxCell id="DP1voIUMJ-i5vXt5Bh_H-12" value="Load Data" style="rounded=0;whiteSpace=wrap;html=1;" vertex="1" parent="1">
          <mxGeometry x="345" y="170" width="80" height="30" as="geometry" />
        </mxCell>
        <mxCell id="DP1voIUMJ-i5vXt5Bh_H-13" value="" style="endArrow=classic;html=1;rounded=0;" edge="1" parent="1">
          <mxGeometry width="50" height="50" relative="1" as="geometry">
            <mxPoint x="110" y="230" as="sourcePoint" />
            <mxPoint x="200" y="160" as="targetPoint" />
          </mxGeometry>
        </mxCell>
        <mxCell id="DP1voIUMJ-i5vXt5Bh_H-15" value="Text" style="text;html=1;align=center;verticalAlign=middle;whiteSpace=wrap;rounded=0;" vertex="1" parent="1">
          <mxGeometry x="390" y="130" width="60" height="30" as="geometry" />
        </mxCell>
        <mxCell id="DP1voIUMJ-i5vXt5Bh_H-16" value="&lt;p style=&quot;line-height: 190%;&quot;&gt;&lt;font size=&quot;1&quot; style=&quot;&quot;&gt;&lt;u style=&quot;font-size: 20px;&quot;&gt;Medallion Architecture&lt;/u&gt;&lt;/font&gt;&lt;/p&gt;" style="text;html=1;align=center;verticalAlign=middle;whiteSpace=wrap;rounded=0;fontStyle=1;fillColor=none;" vertex="1" parent="1">
          <mxGeometry x="88.2" y="330" width="320" height="30" as="geometry" />
        </mxCell>
      </root>
    </mxGraphModel>
  </diagram>
</mxfile>
